<?xml version="1.0" encoding="UTF-8"?>
<svg width="12px" height="20px" viewBox="0 0 12 20" version="1.1" xmlns="http://www.w3.org/2000/svg" xmlns:xlink="http://www.w3.org/1999/xlink">
    <!-- Generator: Sketch 63.1 (92452) - https://sketch.com -->
    <title>Group</title>
    <desc>Created with Sketch.</desc>
    <g id="Page-1" stroke="none" stroke-width="1" fill="none" fill-rule="evenodd">
        <g id="Mobile" transform="translate(-120.000000, -737.000000)">
            <g id="Group-5-Copy" transform="translate(114.000000, 735.000000)">
                <g id="Group">
                    <rect id="Rectangle" x="0" y="0" width="23.9583333" height="24"></rect>
                    <g id="icons8-facebook_f" transform="translate(6.388889, 2.400000)" fill="#2C2C2C" fill-rule="nonzero">
                        <path d="M8.60042735,3.75652174 L10.7505342,3.75652174 C10.987906,3.75652174 11.1805556,3.56953043 11.1805556,3.33913043 L11.1805556,0.527165217 C11.1805556,0.308452174 11.0072569,0.126469565 10.7827858,0.111026087 C10.0986218,0.0638608696 8.76211538,0 7.80101763,0 C5.16025641,0 3.44017094,1.536 3.44017094,4.32751304 L3.44017094,7.09565217 L0.430021368,7.09565217 C0.192649573,7.09565217 0,7.28264348 0,7.51304348 L0,10.4347826 C0,10.6651826 0.192649573,10.8521739 0.430021368,10.8521739 L3.44017094,10.8521739 L3.44017094,18.7826087 C3.44017094,19.0130087 3.63282051,19.2 3.87019231,19.2 L6.88034188,19.2 C7.11771368,19.2 7.31036325,19.0130087 7.31036325,18.7826087 L7.31036325,10.8521739 L10.4159776,10.8521739 C10.6352885,10.8521739 10.8193376,10.692313 10.8434188,10.4806957 L11.1779754,7.55895652 C11.2063568,7.31186087 11.0068269,7.09565217 10.7505342,7.09565217 L7.31036325,7.09565217 L7.31036325,5.00869565 C7.31036325,4.31707826 7.88788194,3.75652174 8.60042735,3.75652174 Z" id="Path"></path>
                    </g>
                </g>
            </g>
        </g>
    </g>
</svg>