<?xml version="1.0" encoding="UTF-8"?>
<svg width="20px" height="20px" viewBox="0 0 20 20" version="1.1" xmlns="http://www.w3.org/2000/svg" xmlns:xlink="http://www.w3.org/1999/xlink">
    <!-- Generator: Sketch 63.1 (92452) - https://sketch.com -->
    <title>Group 2</title>
    <desc>Created with Sketch.</desc>
    <g id="Page-1" stroke="none" stroke-width="1" fill="none" fill-rule="evenodd">
        <g id="Mobile" transform="translate(-157.000000, -737.000000)">
            <g id="Group-5-Copy" transform="translate(114.000000, 735.000000)">
                <g id="Group-2" transform="translate(41.000000, 0.000000)">
                    <rect id="Rectangle" x="0" y="0" width="23.9583333" height="24"></rect>
                    <g id="icons8-instagram" transform="translate(2.395833, 2.400000)" fill="#2C2C2C" fill-rule="nonzero">
                        <path d="M5.58871801,0 C2.50687773,0 0,2.51356248 0,5.6015624 L0,13.6015624 C0,16.6887624 2.50919866,19.2 5.59183747,19.2 L13.5779486,19.2 C16.6597889,19.2 19.1666667,16.6864376 19.1666667,13.5984376 L19.1666667,5.59843752 C19.1666667,2.51123752 16.6574681,0 13.5748292,0 L5.58871801,0 Z M15.1736111,3.2 C15.6144444,3.2 15.9722222,3.5584 15.9722222,4 C15.9722222,4.4416 15.6144444,4.8 15.1736111,4.8 C14.7327778,4.8 14.375,4.4416 14.375,4 C14.375,3.5584 14.7327778,3.2 15.1736111,3.2 Z M9.58333333,4.8 C12.2259375,4.8 14.375,6.9528 14.375,9.6 C14.375,12.2472 12.2259375,14.4 9.58333333,14.4 C6.94072917,14.4 4.79166667,12.2472 4.79166667,9.6 C4.79166667,6.9528 6.94072917,4.8 9.58333333,4.8 Z M9.58333333,6.4 C7.81909038,6.4 6.38888889,7.8326888 6.38888889,9.6 C6.38888889,11.3673112 7.81909038,12.8 9.58333333,12.8 C11.3475763,12.8 12.7777778,11.3673112 12.7777778,9.6 C12.7777778,7.8326888 11.3475763,6.4 9.58333333,6.4 Z" id="Shape"></path>
                    </g>
                </g>
            </g>
        </g>
    </g>
</svg>