<?xml version="1.0" encoding="UTF-8"?>
<svg width="20px" height="16px" viewBox="0 0 20 16" version="1.1" xmlns="http://www.w3.org/2000/svg" xmlns:xlink="http://www.w3.org/1999/xlink">
    <!-- Generator: Sketch 63.1 (92452) - https://sketch.com -->
    <title>Group 3</title>
    <desc>Created with Sketch.</desc>
    <g id="Page-1" stroke="none" stroke-width="1" fill="none" fill-rule="evenodd">
        <g id="Mobile" transform="translate(-198.000000, -739.000000)">
            <g id="Group-5-Copy" transform="translate(114.000000, 735.000000)">
                <g id="Group-3" transform="translate(82.000000, 0.000000)">
                    <rect id="Rectangle" x="0" y="0" width="23.9583333" height="24"></rect>
                    <g id="icons8-twitter" transform="translate(2.395833, 4.000000)" fill="#2C2C2C" fill-rule="nonzero">
                        <path d="M18.8211138,2.07142857 C18.1400867,2.38392876 17.4101062,2.5937501 16.6426909,2.68898819 C17.4259441,2.20386895 18.0277819,1.43601181 18.3099834,0.522321524 C17.5785631,0.970238095 16.7650741,1.29613105 15.9026316,1.4717261 C15.2115258,0.709821333 14.2267001,0.235119238 13.1367688,0.235119238 C11.0432945,0.235119238 9.34576582,1.98809524 9.34576582,4.1517859 C9.34576582,4.45833333 9.38032111,4.75744038 9.44511218,5.04464305 C6.29482171,4.88095238 3.50304228,3.32142857 1.63273756,0.950892952 C1.30590204,1.5312499 1.12016745,2.20386895 1.12016745,2.92113105 C1.12016745,4.2797619 1.78823636,5.47916686 2.80617729,6.18303581 C2.1841821,6.16220229 1.59962199,5.98511924 1.08849159,5.69196419 C1.08849159,5.70833333 1.08849159,5.72470248 1.08849159,5.74107162 C1.08849159,7.63988114 2.39583333,9.2217261 4.12791726,9.58333333 C3.81116045,9.67261905 3.47568628,9.7202381 3.1301334,9.7202381 C2.88536659,9.7202381 2.64779907,9.69642857 2.41599077,9.64880952 C2.89976481,11.203869 4.29925399,12.3392857 5.95646776,12.3705356 C4.66064444,13.421131 3.02646753,14.046131 1.2497496,14.046131 C0.943071506,14.046131 0.642152628,14.0282739 0.34699267,13.9910716 C2.02292409,15.1041669 4.01561239,15.751488 6.15660056,15.751488 C13.1281302,15.751488 16.9407304,9.78273829 16.9407304,4.60714286 C16.9407304,4.43750019 16.9364108,4.26636914 16.9306516,4.09970248 C17.6707105,3.54761905 18.3128632,2.85714286 18.8211138,2.07142857 Z" id="Path"></path>
                    </g>
                </g>
            </g>
        </g>
    </g>
</svg>