<?xml version="1.0" encoding="UTF-8"?>
<svg width="20px" height="16px" viewBox="0 0 20 16" version="1.1" xmlns="http://www.w3.org/2000/svg" xmlns:xlink="http://www.w3.org/1999/xlink">
    <!-- Generator: Sketch 63.1 (92452) - https://sketch.com -->
    <title>Group 4</title>
    <desc>Created with Sketch.</desc>
    <g id="Page-1" stroke="none" stroke-width="1" fill="none" fill-rule="evenodd">
        <g id="Mobile" transform="translate(-239.000000, -739.000000)">
            <g id="Group-5-Copy" transform="translate(114.000000, 735.000000)">
                <g id="Group-4" transform="translate(123.000000, 0.000000)">
                    <rect id="Rectangle" x="0" y="0" width="23.9583333" height="24"></rect>
                    <g id="icons8-play_button" transform="translate(2.395833, 4.800000)" fill="#2C2C2C" fill-rule="nonzero">
                        <path d="M18.2512135,2.475 C18.0776515,1.48535145 17.2506809,0.76464855 16.2909863,0.53964855 C14.8548475,0.225 12.1969697,0 9.32128928,0 C6.44730991,0 3.74689297,0.225 2.30905233,0.53964855 C1.35105964,0.76464855 0.522387064,1.43964855 0.348825057,2.475 C0.173562008,3.6 0,5.175 0,7.2 C0,9.225 0.173562008,10.8 0.391365038,11.925 C0.566628087,12.9146486 1.39359919,13.6353514 2.35159231,13.8603515 C3.87621352,14.175 6.48984989,14.4 9.3655303,14.4 C12.2412112,14.4 14.8548475,14.175 16.3794687,13.8603515 C17.3374614,13.6353514 18.1644325,12.9603515 18.339696,11.925 C18.5132576,10.8 18.7310606,9.1792971 18.7753021,7.2 C18.6868196,5.175 18.4690166,3.6 18.2512135,2.475 Z M6.96969697,10.35 L6.96969697,4.05 L12.2837507,7.2 L6.96969697,10.35 Z" id="Shape"></path>
                    </g>
                </g>
            </g>
        </g>
    </g>
</svg>