<?xml version="1.0" encoding="UTF-8"?>
<svg width="13px" height="20px" viewBox="0 0 13 20" version="1.1" xmlns="http://www.w3.org/2000/svg" xmlns:xlink="http://www.w3.org/1999/xlink">
    <!-- Generator: Sketch 63.1 (92452) - https://sketch.com -->
    <title>Group</title>
    <desc>Created with Sketch.</desc>
    <g id="Page-1" stroke="none" stroke-width="1" fill="none" fill-rule="evenodd">
        <g id="Mobile" transform="translate(-106.000000, -1982.000000)">
            <g id="Footer-Copy" transform="translate(-8.000000, 1925.000000)">
                <g id="Group-5" transform="translate(108.000000, 55.000000)">
                    <g id="Group">
                        <rect id="Rectangle" x="0" y="0" width="24.8529412" height="24"></rect>
                        <g id="icons8-facebook_f" transform="translate(6.627451, 2.400000)" fill="#FFFFFF" fill-opacity="0.547339379" fill-rule="nonzero">
                            <path d="M8.92156863,3.75652174 L11.1519608,3.75652174 C11.3981961,3.75652174 11.5980392,3.56953043 11.5980392,3.33913043 L11.5980392,0.527165217 C11.5980392,0.308452174 11.4182696,0.126469565 11.1854167,0.111026087 C10.4757059,0.0638608696 9.08929412,0 8.09230882,0 C5.35294118,0 3.56862745,1.536 3.56862745,4.32751304 L3.56862745,7.09565217 L0.446078431,7.09565217 C0.199843137,7.09565217 0,7.28264348 0,7.51304348 L0,10.4347826 C0,10.6651826 0.199843137,10.8521739 0.446078431,10.8521739 L3.56862745,10.8521739 L3.56862745,18.7826087 C3.56862745,19.0130087 3.76847059,19.2 4.01470588,19.2 L7.1372549,19.2 C7.3834902,19.2 7.58333333,19.0130087 7.58333333,18.7826087 L7.58333333,10.8521739 L10.8049118,10.8521739 C11.0324118,10.8521739 11.2233333,10.692313 11.2483137,10.4806957 L11.5953627,7.55895652 C11.6248039,7.31186087 11.4178235,7.09565217 11.1519608,7.09565217 L7.58333333,7.09565217 L7.58333333,5.00869565 C7.58333333,4.31707826 8.18241667,3.75652174 8.92156863,3.75652174 Z" id="Path"></path>
                        </g>
                    </g>
                </g>
            </g>
        </g>
    </g>
</svg>