<?xml version="1.0" encoding="UTF-8"?>
<svg width="21px" height="20px" viewBox="0 0 21 20" version="1.1" xmlns="http://www.w3.org/2000/svg" xmlns:xlink="http://www.w3.org/1999/xlink">
    <!-- Generator: Sketch 63.1 (92452) - https://sketch.com -->
    <title>Group 2</title>
    <desc>Created with Sketch.</desc>
    <g id="Page-1" stroke="none" stroke-width="1" fill="none" fill-rule="evenodd">
        <g id="Mobile" transform="translate(-148.000000, -1982.000000)">
            <g id="Footer-Copy" transform="translate(-8.000000, 1925.000000)">
                <g id="Group-5" transform="translate(108.000000, 55.000000)">
                    <g id="Group-2" transform="translate(46.000000, 0.000000)">
                        <rect id="Rectangle" x="0" y="0" width="24.8529412" height="24"></rect>
                        <g id="icons8-instagram" transform="translate(2.485294, 2.400000)" fill="#FFFFFF" fill-opacity="0.547339379" fill-rule="nonzero">
                            <path d="M5.7974016,0 C2.60048493,0 0,2.51356248 0,5.6015624 L0,13.6015624 C0,16.6887624 2.60289252,19.2 5.80063753,19.2 L14.0849513,19.2 C17.2818679,19.2 19.8823529,16.6864376 19.8823529,13.5984376 L19.8823529,5.59843752 C19.8823529,2.51123752 17.2794605,0 14.0817154,0 L5.7974016,0 Z M15.7401961,3.2 C16.1974902,3.2 16.5686275,3.5584 16.5686275,4 C16.5686275,4.4416 16.1974902,4.8 15.7401961,4.8 C15.282902,4.8 14.9117647,4.4416 14.9117647,4 C14.9117647,3.5584 15.282902,3.2 15.7401961,3.2 Z M9.94117647,4.8 C12.6824559,4.8 14.9117647,6.9528 14.9117647,9.6 C14.9117647,12.2472 12.6824559,14.4 9.94117647,14.4 C7.19989706,14.4 4.97058824,12.2472 4.97058824,9.6 C4.97058824,6.9528 7.19989706,4.8 9.94117647,4.8 Z M9.94117647,6.4 C8.11105642,6.4 6.62745098,7.8326888 6.62745098,9.6 C6.62745098,11.3673112 8.11105642,12.8 9.94117647,12.8 C11.7712965,12.8 13.254902,11.3673112 13.254902,9.6 C13.254902,7.8326888 11.7712965,6.4 9.94117647,6.4 Z" id="Shape"></path>
                        </g>
                    </g>
                </g>
            </g>
        </g>
    </g>
</svg>