<?xml version="1.0" encoding="UTF-8"?>
<svg width="20px" height="16px" viewBox="0 0 20 16" version="1.1" xmlns="http://www.w3.org/2000/svg" xmlns:xlink="http://www.w3.org/1999/xlink">
    <!-- Generator: Sketch 63.1 (92452) - https://sketch.com -->
    <title>Group 3</title>
    <desc>Created with Sketch.</desc>
    <g id="Page-1" stroke="none" stroke-width="1" fill="none" fill-rule="evenodd">
        <g id="Mobile" transform="translate(-196.000000, -1984.000000)">
            <g id="Footer-Copy" transform="translate(-8.000000, 1925.000000)">
                <g id="Group-5" transform="translate(108.000000, 55.000000)">
                    <g id="Group-3" transform="translate(94.000000, 0.000000)">
                        <rect id="Rectangle" x="0" y="0" width="24.8529412" height="24"></rect>
                        <g id="icons8-twitter" transform="translate(2.485294, 4.000000)" fill="#FFFFFF" fill-opacity="0.547339379" fill-rule="nonzero">
                            <path d="M19.5238971,2.07142857 C18.8174404,2.38392876 18.0602022,2.5937501 17.2641315,2.68898819 C18.0766315,2.20386895 18.700942,1.43601181 18.993681,0.522321524 C18.2349494,0.970238095 17.3910846,1.29613105 16.4964383,1.4717261 C15.7795266,0.709821333 14.7579273,0.235119238 13.6272978,0.235119238 C11.4556528,0.235119238 9.69473815,1.98809524 9.69473815,4.1517859 C9.69473815,4.45833333 9.73058374,4.75744038 9.79779412,5.04464305 C6.52987132,4.88095238 3.63384641,3.32142857 1.69370424,0.950892952 C1.35466462,1.5312499 1.16199468,2.20386895 1.16199468,2.92113105 C1.16199468,4.2797619 1.85500938,5.47916686 2.91096038,6.18303581 C2.26573979,6.16220229 1.65935212,5.98511924 1.12913603,5.69196419 C1.12913603,5.70833333 1.12913603,5.72470248 1.12913603,5.74107162 C1.12913603,7.63988114 2.48529412,9.2217261 4.28205432,9.58333333 C3.95346976,9.67261905 3.60546894,9.7202381 3.24701306,9.7202381 C2.99310662,9.7202381 2.74666829,9.69642857 2.50620424,9.64880952 C3.00804247,11.203869 4.45978879,12.3392857 6.17888318,12.3705356 C4.83467362,13.421131 3.13947629,14.046131 1.29641544,14.046131 C0.978285941,14.046131 0.666130706,14.0282739 0.359949429,13.9910716 C2.09846038,15.1041669 4.16555597,15.751488 6.38648897,15.751488 C13.6183366,15.751488 17.5732998,9.78273829 17.5732998,4.60714286 C17.5732998,4.43750019 17.568819,4.26636914 17.5628448,4.09970248 C18.3305376,3.54761905 18.9966683,2.85714286 19.5238971,2.07142857 Z" id="Path"></path>
                        </g>
                    </g>
                </g>
            </g>
        </g>
    </g>
</svg>